REM MD5 e9b7417ee6859d44070d982d042608f6
FILE "PlayStation Kids (Europe).bin" BINARY
  TRACK 01 MODE2/2352
    INDEX 01 00:00:00
  TRACK 02 AUDIO
    INDEX 00 21:08:32
    INDEX 01 21:10:32
  TRACK 03 AUDIO
    INDEX 00 22:08:28
    INDEX 01 22:10:28
  TRACK 04 AUDIO
    INDEX 00 23:17:61
    INDEX 01 23:19:61
  TRACK 05 AUDIO
    INDEX 00 24:24:59
    INDEX 01 24:26:59
  TRACK 06 AUDIO
    INDEX 00 24:32:04
    INDEX 01 24:34:04
REM LEADOUT 27:35:35
